<svg width="38" height="40" viewBox="0 0 38 40" fill="none" xmlns="http://www.w3.org/2000/svg">
<g clip-path="url(#clip0_350_556)">
<path d="M12.3208 25.0282V19.7017H25.2554V25.0282H12.3208Z" fill="#999999"/>
<path d="M25.211 13.5264V18.8545H12.2927V13.5264H25.211Z" fill="#999999"/>
<path d="M2.9502 36.0415V33.2903H4.98378V33.6149H3.32245V34.4576H4.87829V34.7801H3.32245V35.7165H5.04894V36.0411H2.9502V36.0415Z" fill="#999999"/>
<path d="M7.6951 35.7467C7.86779 35.8632 8.02703 35.9483 8.17284 36.002L8.06328 36.2554C7.86127 36.1841 7.65966 36.0713 7.45887 35.9173C7.25034 36.0314 7.02022 36.088 6.76811 36.088C6.516 36.088 6.28263 36.0281 6.07532 35.908C5.86801 35.7878 5.70876 35.6188 5.59676 35.4013C5.48475 35.1838 5.42896 34.9386 5.42896 34.6657C5.42896 34.3929 5.48516 34.1473 5.59798 33.9245C5.71039 33.7017 5.87086 33.5323 6.07858 33.4162C6.28629 33.2997 6.51885 33.2415 6.77585 33.2415C7.03285 33.2415 7.26948 33.3017 7.47801 33.4223C7.68654 33.5433 7.84539 33.7119 7.95495 33.929C8.06451 34.146 8.11908 34.3908 8.11908 34.6637C8.11908 34.8902 8.08405 35.0938 8.01359 35.2746C7.94313 35.4555 7.83724 35.6127 7.6951 35.7467ZM6.87564 35.2816C7.09068 35.3402 7.26745 35.4278 7.40714 35.5443C7.62586 35.3492 7.73542 35.0555 7.73542 34.6641C7.73542 34.4413 7.69673 34.2466 7.61934 34.0805C7.54196 33.9143 7.42873 33.7848 7.27966 33.6931C7.1306 33.6011 6.9632 33.5551 6.77789 33.5551C6.50053 33.5551 6.27 33.6479 6.08713 33.8337C5.90426 34.0194 5.81262 34.2967 5.81262 34.6661C5.81262 35.0356 5.90304 35.2987 6.08428 35.4901C6.26552 35.6815 6.49645 35.7772 6.77789 35.7772C6.91107 35.7772 7.03611 35.7528 7.15381 35.7043C7.03733 35.6306 6.91474 35.5781 6.78563 35.5467L6.87564 35.282V35.2816Z" fill="#999999"/>
<path d="M10.4655 33.2903H10.8378V34.88C10.8378 35.1565 10.8056 35.376 10.7421 35.5385C10.6781 35.7011 10.5629 35.8334 10.3959 35.9352C10.2289 36.0371 10.0098 36.088 9.73893 36.088C9.46808 36.088 9.25996 36.0436 9.09256 35.9548C8.92517 35.866 8.80543 35.7373 8.73374 35.5691C8.66206 35.4009 8.62622 35.1712 8.62622 34.8796V33.2899H8.99848V34.8775C8.99848 35.1166 9.02129 35.2925 9.0665 35.4058C9.11171 35.519 9.1899 35.6062 9.30069 35.6677C9.41106 35.7287 9.54669 35.7597 9.70634 35.7597C9.98004 35.7597 10.1751 35.699 10.2916 35.5776C10.4081 35.4563 10.4663 35.2229 10.4663 34.8775V33.2899L10.4655 33.2903Z" fill="#999999"/>
<path d="M11.1484 36.0415L12.2286 33.2903H12.6293L13.7803 36.0415H13.3563L13.0281 35.2082H11.8522L11.5435 36.0415H11.1484ZM11.9598 34.9117H12.9132L12.6196 34.1497C12.53 33.9183 12.4636 33.7281 12.42 33.5791C12.3841 33.7554 12.3336 33.9305 12.2685 34.1044L11.9598 34.9113V34.9117Z" fill="#999999"/>
<path d="M14.0625 36.0415V33.2903H14.4348V35.7169H15.8199V36.0415H14.0625Z" fill="#999999"/>
<path d="M17.2202 36.0415V33.2903H17.5925V34.4201H19.0546V33.2903H19.4269V36.0415H19.0546V34.7447H17.5925V36.0415H17.2202Z" fill="#999999"/>
<path d="M19.9331 34.7015C19.9331 34.245 20.0585 33.8874 20.309 33.6292C20.5599 33.3709 20.8833 33.2418 21.28 33.2418C21.5394 33.2418 21.7736 33.3025 21.9822 33.4239C22.1907 33.5453 22.3495 33.7143 22.4591 33.9314C22.5687 34.1484 22.6232 34.3944 22.6232 34.6698C22.6232 34.9451 22.5658 35.1984 22.4505 35.4188C22.3353 35.6391 22.1724 35.8057 21.9614 35.9189C21.7504 36.0321 21.5227 36.0888 21.2784 36.0888C21.0136 36.0888 20.777 36.026 20.5685 35.901C20.3599 35.776 20.2019 35.6053 20.0944 35.3886C19.9869 35.172 19.9331 34.9431 19.9331 34.7015ZM20.3168 34.7072C20.3168 35.0388 20.408 35.2998 20.5901 35.4909C20.7721 35.6819 21.001 35.7772 21.2759 35.7772C21.5508 35.7772 21.7867 35.6811 21.9675 35.4884C22.1483 35.2958 22.2388 35.0225 22.2388 34.6681C22.2388 34.4441 22.2001 34.2486 22.1227 34.0816C22.0453 33.9147 21.9321 33.7851 21.783 33.6931C21.6339 33.601 21.4669 33.555 21.2812 33.555C21.0177 33.555 20.7909 33.6434 20.6011 33.8206C20.4113 33.9977 20.316 34.2934 20.316 34.7072H20.3168Z" fill="#999999"/>
<path d="M24.9481 33.2903H25.3204V34.88C25.3204 35.1565 25.2882 35.376 25.2247 35.5385C25.1607 35.7011 25.0455 35.8334 24.8785 35.9352C24.7115 36.0371 24.4924 36.088 24.2211 36.088C23.9499 36.088 23.7421 36.0436 23.5747 35.9548C23.4073 35.866 23.2876 35.7373 23.2159 35.5691C23.1442 35.4009 23.1084 35.1712 23.1084 34.8796V33.2899H23.4807V34.8775C23.4807 35.1166 23.5035 35.2925 23.5487 35.4058C23.5939 35.519 23.6721 35.6062 23.7825 35.6677C23.8932 35.7287 24.0285 35.7597 24.1881 35.7597C24.4618 35.7597 24.6569 35.699 24.7734 35.5776C24.8899 35.4563 24.9481 35.2229 24.9481 34.8775V33.2899V33.2903Z" fill="#999999"/>
<path d="M25.8137 35.1578L26.1648 35.1276C26.1815 35.2653 26.2202 35.3781 26.2809 35.4665C26.3416 35.5549 26.4361 35.6262 26.5639 35.6803C26.6918 35.7349 26.8356 35.7618 26.9957 35.7618C27.1378 35.7618 27.2628 35.741 27.3716 35.6999C27.4803 35.6587 27.5614 35.6021 27.6143 35.53C27.6673 35.4579 27.6938 35.3797 27.6938 35.2946C27.6938 35.2095 27.6681 35.1329 27.6172 35.0686C27.5663 35.0042 27.4816 34.9501 27.3639 34.9065C27.2885 34.8776 27.1215 34.8332 26.8629 34.7721C26.6043 34.7114 26.4234 34.6544 26.32 34.6002C26.1856 34.5314 26.0858 34.4462 26.0198 34.344C25.9538 34.2422 25.9212 34.1278 25.9212 34.0015C25.9212 33.8626 25.9616 33.7327 26.0422 33.6121C26.1229 33.4916 26.2406 33.3999 26.3953 33.3372C26.5501 33.2745 26.722 33.2435 26.9114 33.2435C27.1199 33.2435 27.3036 33.2765 27.4628 33.3421C27.6221 33.4077 27.7447 33.5046 27.8302 33.6321C27.9157 33.7596 27.9617 33.9042 27.9683 34.0654L27.6115 34.0919C27.5923 33.918 27.5272 33.7864 27.4168 33.6977C27.306 33.6089 27.1427 33.5645 26.9268 33.5645C26.711 33.5645 26.5375 33.6048 26.4348 33.6854C26.3318 33.7661 26.2805 33.8634 26.2805 33.9771C26.2805 34.076 26.3167 34.1571 26.3896 34.221C26.4613 34.285 26.6482 34.3501 26.9509 34.4173C27.2535 34.4841 27.4608 34.5428 27.5732 34.5929C27.7369 34.6666 27.8579 34.7603 27.9361 34.8735C28.0139 34.9867 28.053 35.117 28.053 35.2649C28.053 35.4127 28.0102 35.5492 27.9243 35.6787C27.8387 35.8082 27.7157 35.9088 27.5553 35.9809C27.3948 36.0526 27.214 36.0888 27.0132 36.0888C26.7586 36.0888 26.5452 36.0526 26.3733 35.9801C26.2015 35.9076 26.0662 35.7984 25.9685 35.6526C25.8707 35.5068 25.819 35.3419 25.8141 35.1582L25.8137 35.1578Z" fill="#999999"/>
<path d="M28.6243 36.0415V33.2903H28.9965V36.0415H28.6243Z" fill="#999999"/>
<path d="M29.6487 36.0415V33.2903H30.0307L31.5079 35.4501V33.2903H31.8647V36.0415H31.4831L30.0059 33.8796V36.0415H29.6491H29.6487Z" fill="#999999"/>
<path d="M33.8058 34.9623V34.6397L34.9971 34.6377V35.6587C34.8142 35.8013 34.6256 35.9088 34.4314 35.9805C34.2371 36.0522 34.0375 36.0884 33.8327 36.0884C33.5565 36.0884 33.3052 36.0306 33.0796 35.9149C32.854 35.7993 32.6833 35.6319 32.5684 35.4127C32.4532 35.194 32.3958 34.9492 32.3958 34.6792C32.3958 34.4092 32.4532 34.1616 32.5676 33.9294C32.6821 33.6972 32.8466 33.525 33.0617 33.4126C33.2767 33.2997 33.5239 33.2435 33.8041 33.2435C34.0074 33.2435 34.1915 33.2757 34.3556 33.3401C34.5198 33.4044 34.6489 33.4944 34.7421 33.6093C34.8354 33.7245 34.9063 33.8744 34.9551 34.0597L34.6195 34.1497C34.5772 34.0096 34.5246 33.8997 34.4623 33.8194C34.3996 33.7396 34.31 33.6753 34.1939 33.6272C34.0774 33.5791 33.9483 33.5551 33.8062 33.5551C33.6359 33.5551 33.4889 33.5804 33.3651 33.6309C33.2409 33.6814 33.1407 33.7482 33.0649 33.8308C32.9892 33.9135 32.9297 34.0043 32.8873 34.1029C32.8157 34.2732 32.7798 34.4577 32.7798 34.6564C32.7798 34.9016 32.823 35.1069 32.9093 35.2718C32.9957 35.4372 33.1211 35.5598 33.2865 35.6396C33.4514 35.7198 33.6266 35.7597 33.8123 35.7597C33.9736 35.7597 34.1308 35.7296 34.2843 35.6689C34.4379 35.6082 34.5544 35.5435 34.6334 35.4746V34.9623H33.8066H33.8058Z" fill="#999999"/>
<path d="M2.65869 38.3529C2.65869 37.8104 2.8045 37.386 3.09652 37.0789C3.38855 36.7722 3.7657 36.6187 4.22756 36.6187C4.53017 36.6187 4.80265 36.6907 5.04539 36.8349C5.28813 36.9791 5.47345 37.1799 5.60093 37.4381C5.72841 37.6959 5.79194 37.9884 5.79194 38.315C5.79194 38.6416 5.72474 38.943 5.59075 39.2045C5.45675 39.466 5.26655 39.6639 5.02095 39.7983C4.77495 39.9327 4.50981 39.9999 4.22552 39.9999C3.91721 39.9999 3.64147 39.9258 3.39873 39.7772C3.15599 39.6285 2.97189 39.4257 2.84686 39.1687C2.72182 38.9117 2.6591 38.6396 2.6591 38.3529H2.65869ZM3.10589 38.3594C3.10589 38.7532 3.21219 39.0636 3.42439 39.29C3.63659 39.5169 3.90295 39.6301 4.22349 39.6301C4.54402 39.6301 4.81812 39.5157 5.0291 39.2868C5.23966 39.0579 5.34515 38.7333 5.34515 38.313C5.34515 38.047 5.29994 37.8149 5.20993 37.6165C5.11992 37.4182 4.98796 37.2642 4.81446 37.155C4.64095 37.0459 4.44586 36.9913 4.23 36.9913C3.92291 36.9913 3.65899 37.0964 3.43783 37.3066C3.21667 37.5167 3.10589 37.8678 3.10589 38.3598V38.3594Z" fill="#999999"/>
<path d="M6.35083 39.9445V36.6769H7.58654C7.80403 36.6769 7.9702 36.6875 8.08506 36.7082C8.24593 36.7351 8.38075 36.786 8.48949 36.861C8.59824 36.9359 8.6858 37.041 8.75219 37.1762C8.81858 37.3114 8.85157 37.4601 8.85157 37.6222C8.85157 37.9 8.76278 38.1354 8.58561 38.3276C8.40844 38.5203 8.08791 38.6164 7.62482 38.6164H6.78459V39.9449H6.35124L6.35083 39.9445ZM6.78418 38.2303H7.63134C7.91155 38.2303 8.11031 38.1781 8.22801 38.0743C8.34572 37.9704 8.40478 37.8238 8.40478 37.6352C8.40478 37.4984 8.37016 37.3815 8.30092 37.2841C8.23168 37.1868 8.14045 37.1225 8.02722 37.0915C7.95432 37.0724 7.8195 37.0626 7.62279 37.0626H6.78459V38.2307L6.78418 38.2303Z" fill="#999999"/>
<path d="M9.40332 39.9445V36.6769H10.639C10.8565 36.6769 11.0227 36.6875 11.1375 36.7082C11.2984 36.7351 11.4332 36.786 11.542 36.861C11.6507 36.9359 11.7383 37.041 11.8047 37.1762C11.8711 37.3114 11.9041 37.4601 11.9041 37.6222C11.9041 37.9 11.8153 38.1354 11.6381 38.3276C11.4609 38.5203 11.1404 38.6164 10.6773 38.6164H9.83708V39.9449H9.40373L9.40332 39.9445ZM9.83708 38.2303H10.6842C10.9644 38.2303 11.1632 38.1781 11.2809 38.0743C11.3986 37.9704 11.4577 37.8238 11.4577 37.6352C11.4577 37.4984 11.4231 37.3815 11.3538 37.2841C11.2846 37.1868 11.1933 37.1225 11.0801 37.0915C11.0072 37.0724 10.8724 37.0626 10.6757 37.0626H9.83749V38.2307L9.83708 38.2303Z" fill="#999999"/>
<path d="M12.3245 38.3529C12.3245 37.8104 12.4703 37.386 12.7623 37.0789C13.0543 36.7722 13.4315 36.6187 13.8933 36.6187C14.1959 36.6187 14.4684 36.6907 14.7112 36.8349C14.9539 36.9791 15.1392 37.1799 15.2667 37.4381C15.3942 37.6959 15.4577 37.9884 15.4577 38.315C15.4577 38.6416 15.3905 38.943 15.2565 39.2045C15.1225 39.466 14.9323 39.6639 14.6867 39.7983C14.4407 39.9327 14.1756 39.9999 13.8913 39.9999C13.583 39.9999 13.3072 39.9258 13.0645 39.7772C12.8218 39.6285 12.6377 39.4257 12.5126 39.1687C12.3876 38.9117 12.3249 38.6396 12.3249 38.3529H12.3245ZM12.7713 38.3594C12.7713 38.7532 12.8776 39.0636 13.0898 39.29C13.302 39.5169 13.5683 39.6301 13.8888 39.6301C14.2094 39.6301 14.4835 39.5157 14.6945 39.2868C14.905 39.0579 15.0105 38.7333 15.0105 38.313C15.0105 38.047 14.9653 37.8149 14.8753 37.6165C14.7853 37.4182 14.6533 37.2642 14.4798 37.155C14.3063 37.0459 14.1112 36.9913 13.8954 36.9913C13.5883 36.9913 13.3244 37.0964 13.1032 37.3066C12.882 37.5167 12.7713 37.8678 12.7713 38.3598V38.3594Z" fill="#999999"/>
<path d="M16.0229 39.9445V36.6769H17.4757C17.7677 36.6769 17.9897 36.7062 18.1416 36.7649C18.2935 36.8235 18.4149 36.9274 18.5057 37.0756C18.5965 37.2243 18.6421 37.3884 18.6421 37.5684C18.6421 37.8002 18.5668 37.9957 18.4165 38.1545C18.2662 38.3138 18.0336 38.4148 17.7192 38.4575C17.8341 38.5125 17.9212 38.5667 17.9807 38.6204C18.1074 38.7365 18.2271 38.8811 18.3403 39.055L18.9101 39.9445H18.3648L17.9314 39.2648C17.8047 39.0685 17.7005 38.9186 17.6186 38.8143C17.5368 38.7105 17.4634 38.6376 17.3987 38.596C17.3339 38.5545 17.2679 38.5256 17.2007 38.5089C17.1515 38.4983 17.0712 38.4934 16.9592 38.4934H16.4562V39.9445H16.0225H16.0229ZM16.4566 38.1187H17.3885C17.5864 38.1187 17.7416 38.0983 17.8532 38.0576C17.9648 38.0164 18.0499 37.9513 18.1078 37.8613C18.166 37.7713 18.1949 37.6735 18.1949 37.568C18.1949 37.4137 18.1387 37.2866 18.0263 37.1868C17.9139 37.0874 17.7363 37.0373 17.4932 37.0373H16.4562V38.1183L16.4566 38.1187Z" fill="#999999"/>
<path d="M20.0727 39.9445V37.0626H18.9934V36.6769H21.5903V37.0626H20.5065V39.9445H20.0727Z" fill="#999999"/>
<path d="M24.1845 36.6765H24.6182V38.5643C24.6182 38.893 24.5808 39.1536 24.5066 39.3467C24.4321 39.5397 24.2977 39.6969 24.103 39.8183C23.9087 39.9393 23.6534 40 23.3377 40C23.0221 40 22.7798 39.9474 22.5847 39.8419C22.3896 39.7365 22.2503 39.5837 22.1668 39.3837C22.0833 39.1838 22.0417 38.9109 22.0417 38.5647V36.6769H22.4755V38.5627C22.4755 38.8465 22.502 39.0555 22.5549 39.1903C22.6079 39.3247 22.6987 39.4285 22.8274 39.501C22.9561 39.5739 23.1137 39.6102 23.3003 39.6102C23.6192 39.6102 23.8464 39.5381 23.9821 39.3939C24.1177 39.2497 24.1853 38.9728 24.1853 38.5627V36.6769L24.1845 36.6765Z" fill="#999999"/>
<path d="M25.3357 39.9445V36.6769H25.7804L27.5012 39.2424V36.6769H27.9171V39.9445H27.4723L25.7515 37.3766V39.9445H25.3357Z" fill="#999999"/>
<path d="M28.7192 39.9445V36.6769H29.1526V39.9445H28.7192Z" fill="#999999"/>
<path d="M30.7505 39.9445V37.0626H29.6711V36.6769H32.268V37.0626H31.1842V39.9445H30.7505Z" fill="#999999"/>
<path d="M33.6356 39.9446V38.5606L32.373 36.6769H32.9005L33.5464 37.6621C33.6658 37.8462 33.7766 38.0307 33.8796 38.2148C33.9778 38.0438 34.0971 37.8515 34.2372 37.6373L34.8717 36.6765H35.3768L34.0694 38.5602V39.9442H33.636L33.6356 39.9446Z" fill="#999999"/>
<path d="M37.5159 12.5876C37.4508 12.7029 37.406 12.619 37.5159 12.5876Z" fill="#999999"/>
<path d="M37.5161 12.5875L19.007 0.0716331C18.8714 -0.0200063 18.6494 -0.0244865 18.5178 0.0634874C17.2544 0.907792 15.9906 1.75128 14.728 2.59681C13.8565 3.18086 12.9873 3.76898 12.1165 4.35384C11.2413 4.94156 10.3648 5.52723 9.48912 6.11413C8.58209 6.72221 7.67629 7.33151 6.76926 7.93959C5.8936 8.5269 5.01752 9.11258 4.14186 9.69988C3.23483 10.308 2.32821 10.9164 1.42241 11.5257C0.947511 11.8451 0.473837 12.1672 -0.000244141 12.4878V17.534H2.4508V32.413C2.57299 32.4228 2.68377 32.4399 2.79455 32.4399C6.70654 32.4411 10.6185 32.4371 14.5305 32.4419C21.3338 32.4501 28.1367 32.4631 34.94 32.4741C34.984 32.4741 35.0276 32.4741 35.0846 32.4741V17.5674H37.5161V12.5875C37.451 12.7028 37.4062 12.6189 37.5161 12.5875ZM31.0423 27.2629V27.3578H6.54811C6.54566 27.3069 6.54077 27.2592 6.54077 27.2116C6.54077 23.0841 6.54077 18.9563 6.53874 14.8288C6.53874 14.7201 6.57091 14.6598 6.66825 14.5955C7.83676 13.82 8.99956 13.0364 10.1644 12.2552C10.9733 11.7127 11.783 11.1706 12.5918 10.6281C13.4011 10.0856 14.2108 9.5443 15.0188 8.99976C15.8497 8.44015 16.6781 7.87728 17.5082 7.31644C17.8764 7.06759 18.2474 6.82363 18.6127 6.5707C18.6979 6.51205 18.7573 6.51857 18.8392 6.57355C19.7764 7.20403 20.7152 7.83247 21.6544 8.4597C23.7331 9.84732 25.8127 11.2333 27.8915 12.6209C28.9065 13.2983 29.9206 13.9768 30.934 14.6574C30.9959 14.6989 31.0468 14.7437 31.0468 14.8468C31.0419 18.9856 31.0423 23.124 31.0423 27.2629Z" fill="#999999"/>
</g>
<defs>
<clipPath id="clip0_350_556">
<rect width="37.516" height="40" fill="white"/>
</clipPath>
</defs>
</svg>
