<svg viewBox="0 0 43.2727 28" fill="none" xmlns="http://www.w3.org/2000/svg">
<path id="Vector" fill-rule="evenodd" clip-rule="evenodd" d="M31.9044 19.8077H36.2801V8.6184H31.9044V19.8077ZM31.4472 5.11314C31.4472 5.86648 31.702 6.45763 32.2109 6.88707C32.7199 7.31458 33.3503 7.52954 34.0992 7.52954C34.8485 7.52954 35.4779 7.31458 35.9869 6.88707C36.4954 6.45763 36.7496 5.86648 36.7496 5.11314C36.7496 4.34382 36.4954 3.74347 35.9869 3.31451C35.4779 2.88555 34.8485 2.67059 34.0992 2.67059C33.3503 2.67059 32.7199 2.88555 32.2109 3.31451C31.702 3.74347 31.4472 4.34382 31.4472 5.11314ZM30.1213 19.4499L30.1154 16.6461C29.5496 16.8519 29.0175 17.0083 28.5189 17.1158C28.0213 17.2252 27.5113 17.2789 26.9905 17.2789C26.484 17.2789 26.0121 17.2136 25.5733 17.0833C25.1334 16.9545 24.7508 16.7623 24.423 16.5086C24.0957 16.2545 23.8351 15.9354 23.6411 15.551C23.4491 15.1675 23.3518 14.7216 23.3518 14.2128C23.3518 13.23 23.6603 12.4723 24.2774 11.9426C24.8965 11.4134 25.6957 11.1481 26.6776 11.1481C27.2882 11.1481 27.8613 11.2265 28.3965 11.3834C28.9326 11.5398 29.4159 11.7373 29.8468 11.975L29.8537 8.97232C29.3033 8.77769 29.2885 8.75832 28.5974 8.60969C27.9097 8.46299 27.1238 8.43975 26.2752 8.43975C25.1749 8.43975 24.1663 8.57822 23.2516 8.85273C22.3364 9.12918 21.548 9.52135 20.886 10.0292C20.224 10.5371 19.7106 11.1481 19.3463 11.8608C18.9815 12.5759 18.7993 13.3641 18.7993 14.2297C18.7993 15.1051 18.9706 15.8991 19.3122 16.6142C19.6543 17.3273 20.1529 17.9316 20.8075 18.4302C21.4621 18.9275 22.2618 19.3119 23.2067 19.5816C24.152 19.8512 25.2272 19.9868 26.4322 19.9868C27.2808 19.9868 28.0391 19.9248 28.7085 19.7994C29.3783 19.6755 29.4336 19.6469 30.1213 19.4499ZM17.9453 12.4456C17.9453 11.1597 17.4013 10.1992 16.3128 9.56686C15.2243 8.93455 13.7265 8.6184 11.8196 8.6184H6.71814V19.8077H11.0727V16.4505H11.7554C12.68 16.4505 13.5232 16.3677 14.2849 16.1997C15.0466 16.0332 15.6972 15.7814 16.2383 15.4454C16.7793 15.1104 17.1989 14.6921 17.4976 14.1886C17.7967 13.686 17.9453 13.1046 17.9453 12.4456ZM43.2727 17.6701L9.77238 28L0 1.93806L35.1694 0L43.2727 17.6701ZM13.7616 12.494C13.7616 13.0237 13.5706 13.4125 13.186 13.6613C12.8009 13.9102 12.2466 14.0346 11.5209 14.0346H11.0297V11.0348H11.5638C13.0295 11.0348 13.7616 11.5214 13.7616 12.494Z" fill="var(--fill-0, #4D4D4D)"/>
</svg>
