<svg xmlns="http://www.w3.org/2000/svg" width="16.87" height="20.763" viewBox="0 0 16.87 20.763"><path fill="#2cb3b4" d="M3.893 16.87h9.084a1.3 1.3 0 0 1-1.3 1.3h-.647a1.3 1.3 0 0 0-1.3 1.3v.811a.49.49 0 0 1-.487.487H7.624a.49.49 0 0 1-.487-.487v-.811a1.3 1.3 0 0 0-1.3-1.3h-.646a1.3 1.3 0 0 1-1.298-1.3M16.87 8.435a8.42 8.42 0 0 1-3.954 7.137H3.954A8.432 8.432 0 1 1 16.87 8.435m-7.3 1.78a1.335 1.335 0 0 0 .446-2.6 1.319 1.319 0 0 1-1.7 1.7 1.33 1.33 0 0 0 1.25.9Zm1.991 1.9a1.33 1.33 0 0 0-.9-1.253 1.319 1.319 0 0 1-1.7 1.7 1.335 1.335 0 0 0 2.6-.446Zm2.6-2.6a1.33 1.33 0 0 0-.9-1.253 1.319 1.319 0 0 1-1.7 1.7 1.335 1.335 0 0 0 2.6-.446Z"/></svg>